<mxfile host="app.diagrams.net" agent="Mozilla/5.0 (Windows NT 10.0; Win64; x64) AppleWebKit/537.36 (KHTML, like Gecko) Chrome/141.0.0.0 Safari/537.36 Edg/141.0.0.0" version="28.2.4">
  <diagram id="qKM28W6E4ZTGyOWVjY06" name="Página-2">
    <mxGraphModel dx="1158" dy="1260" grid="1" gridSize="10" guides="1" tooltips="1" connect="1" arrows="1" fold="1" page="1" pageScale="1" pageWidth="827" pageHeight="1169" math="0" shadow="0">
      <root>
        <mxCell id="0" />
        <mxCell id="1" parent="0" />
        <mxCell id="-J36yjxag4V6AexoHgBZ-1" value="Servidor de Banco de Dados" style="verticalAlign=top;align=left;spacingTop=8;spacingLeft=2;spacingRight=12;shape=cube;size=10;direction=south;fontStyle=4;html=1;whiteSpace=wrap;" vertex="1" parent="1">
          <mxGeometry x="150" y="200" width="700" height="360" as="geometry" />
        </mxCell>
        <mxCell id="-J36yjxag4V6AexoHgBZ-2" value="Tabelas de Atletas" style="html=1;dropTarget=0;whiteSpace=wrap;" vertex="1" parent="1">
          <mxGeometry x="180" y="260" width="180" height="90" as="geometry" />
        </mxCell>
        <mxCell id="-J36yjxag4V6AexoHgBZ-3" value="" style="shape=module;jettyWidth=8;jettyHeight=4;" vertex="1" parent="-J36yjxag4V6AexoHgBZ-2">
          <mxGeometry x="1" width="20" height="20" relative="1" as="geometry">
            <mxPoint x="-27" y="7" as="offset" />
          </mxGeometry>
        </mxCell>
        <mxCell id="-J36yjxag4V6AexoHgBZ-6" value="Tabelas de Competições" style="html=1;dropTarget=0;whiteSpace=wrap;" vertex="1" parent="1">
          <mxGeometry x="410" y="260" width="180" height="90" as="geometry" />
        </mxCell>
        <mxCell id="-J36yjxag4V6AexoHgBZ-7" value="" style="shape=module;jettyWidth=8;jettyHeight=4;" vertex="1" parent="-J36yjxag4V6AexoHgBZ-6">
          <mxGeometry x="1" width="20" height="20" relative="1" as="geometry">
            <mxPoint x="-27" y="7" as="offset" />
          </mxGeometry>
        </mxCell>
        <mxCell id="-J36yjxag4V6AexoHgBZ-8" value="Tabelas de Resultados" style="html=1;dropTarget=0;whiteSpace=wrap;" vertex="1" parent="1">
          <mxGeometry x="640" y="260" width="180" height="90" as="geometry" />
        </mxCell>
        <mxCell id="-J36yjxag4V6AexoHgBZ-9" value="" style="shape=module;jettyWidth=8;jettyHeight=4;" vertex="1" parent="-J36yjxag4V6AexoHgBZ-8">
          <mxGeometry x="1" width="20" height="20" relative="1" as="geometry">
            <mxPoint x="-27" y="7" as="offset" />
          </mxGeometry>
        </mxCell>
        <mxCell id="-J36yjxag4V6AexoHgBZ-10" value="Tabelas de Paises" style="html=1;dropTarget=0;whiteSpace=wrap;" vertex="1" parent="1">
          <mxGeometry x="180" y="420" width="180" height="90" as="geometry" />
        </mxCell>
        <mxCell id="-J36yjxag4V6AexoHgBZ-11" value="" style="shape=module;jettyWidth=8;jettyHeight=4;" vertex="1" parent="-J36yjxag4V6AexoHgBZ-10">
          <mxGeometry x="1" width="20" height="20" relative="1" as="geometry">
            <mxPoint x="-27" y="7" as="offset" />
          </mxGeometry>
        </mxCell>
        <mxCell id="-J36yjxag4V6AexoHgBZ-12" value="Tabelas de Locais" style="html=1;dropTarget=0;whiteSpace=wrap;" vertex="1" parent="1">
          <mxGeometry x="410" y="420" width="180" height="90" as="geometry" />
        </mxCell>
        <mxCell id="-J36yjxag4V6AexoHgBZ-13" value="" style="shape=module;jettyWidth=8;jettyHeight=4;" vertex="1" parent="-J36yjxag4V6AexoHgBZ-12">
          <mxGeometry x="1" width="20" height="20" relative="1" as="geometry">
            <mxPoint x="-27" y="7" as="offset" />
          </mxGeometry>
        </mxCell>
        <mxCell id="-J36yjxag4V6AexoHgBZ-14" value="Dispositivo do Usuario" style="verticalAlign=top;align=left;spacingTop=8;spacingLeft=2;spacingRight=12;shape=cube;size=10;direction=south;fontStyle=4;html=1;whiteSpace=wrap;" vertex="1" parent="1">
          <mxGeometry x="930" y="200" width="250" height="160" as="geometry" />
        </mxCell>
        <mxCell id="-J36yjxag4V6AexoHgBZ-15" value="Navegador Web" style="html=1;dropTarget=0;whiteSpace=wrap;" vertex="1" parent="1">
          <mxGeometry x="961" y="240" width="180" height="90" as="geometry" />
        </mxCell>
        <mxCell id="-J36yjxag4V6AexoHgBZ-16" value="" style="shape=module;jettyWidth=8;jettyHeight=4;" vertex="1" parent="-J36yjxag4V6AexoHgBZ-15">
          <mxGeometry x="1" width="20" height="20" relative="1" as="geometry">
            <mxPoint x="-27" y="7" as="offset" />
          </mxGeometry>
        </mxCell>
        <mxCell id="-J36yjxag4V6AexoHgBZ-17" value="Servidor de Web (Camada de Aplicação)" style="verticalAlign=top;align=left;spacingTop=8;spacingLeft=2;spacingRight=12;shape=cube;size=10;direction=south;fontStyle=4;html=1;whiteSpace=wrap;" vertex="1" parent="1">
          <mxGeometry x="900" y="580" width="710" height="410" as="geometry" />
        </mxCell>
        <mxCell id="-J36yjxag4V6AexoHgBZ-18" value="API REST" style="html=1;dropTarget=0;whiteSpace=wrap;" vertex="1" parent="1">
          <mxGeometry x="930" y="650" width="180" height="90" as="geometry" />
        </mxCell>
        <mxCell id="-J36yjxag4V6AexoHgBZ-19" value="" style="shape=module;jettyWidth=8;jettyHeight=4;" vertex="1" parent="-J36yjxag4V6AexoHgBZ-18">
          <mxGeometry x="1" width="20" height="20" relative="1" as="geometry">
            <mxPoint x="-27" y="7" as="offset" />
          </mxGeometry>
        </mxCell>
        <mxCell id="-J36yjxag4V6AexoHgBZ-20" value="Modulo de Relatórios" style="html=1;dropTarget=0;whiteSpace=wrap;" vertex="1" parent="1">
          <mxGeometry x="1151" y="650" width="180" height="90" as="geometry" />
        </mxCell>
        <mxCell id="-J36yjxag4V6AexoHgBZ-21" value="" style="shape=module;jettyWidth=8;jettyHeight=4;" vertex="1" parent="-J36yjxag4V6AexoHgBZ-20">
          <mxGeometry x="1" width="20" height="20" relative="1" as="geometry">
            <mxPoint x="-27" y="7" as="offset" />
          </mxGeometry>
        </mxCell>
        <mxCell id="-J36yjxag4V6AexoHgBZ-22" value="Módulos de Alocação" style="html=1;dropTarget=0;whiteSpace=wrap;" vertex="1" parent="1">
          <mxGeometry x="1380" y="650" width="180" height="90" as="geometry" />
        </mxCell>
        <mxCell id="-J36yjxag4V6AexoHgBZ-23" value="" style="shape=module;jettyWidth=8;jettyHeight=4;" vertex="1" parent="-J36yjxag4V6AexoHgBZ-22">
          <mxGeometry x="1" width="20" height="20" relative="1" as="geometry">
            <mxPoint x="-27" y="7" as="offset" />
          </mxGeometry>
        </mxCell>
        <mxCell id="-J36yjxag4V6AexoHgBZ-24" value="Modulo de Inscrições" style="html=1;dropTarget=0;whiteSpace=wrap;" vertex="1" parent="1">
          <mxGeometry x="930" y="820" width="180" height="90" as="geometry" />
        </mxCell>
        <mxCell id="-J36yjxag4V6AexoHgBZ-25" value="" style="shape=module;jettyWidth=8;jettyHeight=4;" vertex="1" parent="-J36yjxag4V6AexoHgBZ-24">
          <mxGeometry x="1" width="20" height="20" relative="1" as="geometry">
            <mxPoint x="-27" y="7" as="offset" />
          </mxGeometry>
        </mxCell>
        <mxCell id="-J36yjxag4V6AexoHgBZ-26" value="Modulo de Competições&amp;nbsp;" style="html=1;dropTarget=0;whiteSpace=wrap;" vertex="1" parent="1">
          <mxGeometry x="1151" y="820" width="180" height="90" as="geometry" />
        </mxCell>
        <mxCell id="-J36yjxag4V6AexoHgBZ-27" value="" style="shape=module;jettyWidth=8;jettyHeight=4;" vertex="1" parent="-J36yjxag4V6AexoHgBZ-26">
          <mxGeometry x="1" width="20" height="20" relative="1" as="geometry">
            <mxPoint x="-27" y="7" as="offset" />
          </mxGeometry>
        </mxCell>
        <mxCell id="-J36yjxag4V6AexoHgBZ-28" value="Modulo de Resultado" style="html=1;dropTarget=0;whiteSpace=wrap;" vertex="1" parent="1">
          <mxGeometry x="1380" y="820" width="180" height="90" as="geometry" />
        </mxCell>
        <mxCell id="-J36yjxag4V6AexoHgBZ-29" value="" style="shape=module;jettyWidth=8;jettyHeight=4;" vertex="1" parent="-J36yjxag4V6AexoHgBZ-28">
          <mxGeometry x="1" width="20" height="20" relative="1" as="geometry">
            <mxPoint x="-27" y="7" as="offset" />
          </mxGeometry>
        </mxCell>
      </root>
    </mxGraphModel>
  </diagram>
</mxfile>
